<?xml version="1.0" encoding="UTF-8" standalone="no"?>
<!DOCTYPE svg PUBLIC "-//W3C//DTD SVG 1.1//EN" "http://www.w3.org/Graphics/SVG/1.1/DTD/svg11.dtd">
<svg version="1.1" xmlns="http://www.w3.org/2000/svg" xmlns:xlink="http://www.w3.org/1999/xlink" preserveAspectRatio="xMidYMid meet" viewBox="-1.0015968912363746 -0.9999999999998863 335.15449995774696 643.9999999999999" width="331.15" height="640"><defs><path d="M179.16 0.57L185.83 1.26L192.43 2.23L198.95 3.47L205.37 4.96L211.69 6.7L217.91 8.69L224.02 10.93L230.03 13.4L235.91 16.11L241.67 19.04L247.3 22.19L252.79 25.55L258.15 29.13L263.36 32.91L268.43 36.88L273.33 41.06L278.08 45.41L282.66 49.95L287.06 54.67L291.3 59.56L295.34 64.61L299.21 69.83L302.87 75.2L306.35 80.71L309.61 86.37L312.67 92.17L315.52 98.11L318.14 104.17L320.54 110.35L322.71 116.65L324.65 123.05L326.34 129.57L327.79 136.18L328.99 142.89L329.93 149.69L330.6 156.57L331.01 163.52L331.15 170.55L331.15 469.45L331.01 476.48L330.6 483.43L329.93 490.31L328.99 497.11L327.79 503.82L326.34 510.43L324.65 516.95L322.71 523.35L320.54 529.65L318.14 535.83L315.52 541.89L312.67 547.83L309.61 553.63L306.35 559.29L302.87 564.8L299.21 570.17L295.34 575.39L291.3 580.44L287.06 585.33L282.66 590.05L278.08 594.59L273.33 598.94L268.43 603.12L263.36 607.09L258.15 610.87L252.79 614.45L247.3 617.81L241.67 620.96L235.91 623.89L230.03 626.6L224.02 629.07L217.91 631.31L211.69 633.3L205.37 635.04L198.95 636.53L192.43 637.77L185.83 638.74L179.16 639.43L172.4 639.86L165.58 640L158.75 639.86L152 639.44L145.33 638.74L138.73 637.77L132.22 636.54L125.81 635.05L119.48 633.3L113.27 631.31L107.15 629.08L101.16 626.61L95.28 623.91L89.52 620.98L83.89 617.83L78.4 614.47L73.04 610.9L67.83 607.12L62.77 603.15L57.86 598.98L53.12 594.63L48.54 590.09L44.13 585.38L39.9 580.5L35.85 575.45L31.99 570.24L28.32 564.87L24.85 559.36L21.58 553.7L18.52 547.91L15.67 541.98L13.05 535.92L10.64 529.75L8.47 523.45L6.53 517.05L4.84 510.54L3.38 503.93L2.18 497.23L1.24 490.43L0.56 483.56L0.14 476.6L0 469.58L0 170.55L0.14 163.52L0.55 156.57L1.23 149.69L2.17 142.89L3.36 136.18L4.81 129.57L6.5 123.05L8.44 116.65L10.61 110.35L13.01 104.17L15.64 98.11L18.48 92.17L21.54 86.37L24.81 80.71L28.28 75.2L31.95 69.83L35.81 64.61L39.86 59.56L44.09 54.67L48.49 49.95L53.07 45.41L57.82 41.06L62.73 36.88L67.79 32.91L73 29.13L78.36 25.55L83.85 22.19L89.48 19.04L95.24 16.11L101.13 13.4L107.13 10.93L113.24 8.69L119.46 6.7L125.79 4.96L132.21 3.47L138.72 2.23L145.32 1.26L152 0.57L158.75 0.14L165.58 0L172.4 0.14L179.16 0.57ZM153.43 18.55L147.46 19.18L141.56 20.06L135.74 21.18L129.99 22.54L124.34 24.13L118.78 25.94L113.31 27.98L107.94 30.23L102.68 32.69L97.53 35.36L92.5 38.23L87.58 41.29L82.79 44.54L78.13 47.98L73.6 51.6L69.21 55.4L64.97 59.37L60.87 63.5L56.93 67.79L53.15 72.24L49.53 76.84L46.07 81.59L42.79 86.47L39.69 91.5L36.77 96.65L34.03 101.93L31.49 107.33L29.14 112.84L26.99 118.47L25.05 124.2L23.32 130.04L21.81 135.96L20.51 141.98L19.44 148.09L18.6 154.28L17.99 160.54L17.63 166.87L17.5 173.27L17.5 466.86L17.63 473.26L17.99 479.59L18.6 485.86L19.44 492.04L20.51 498.15L21.81 504.17L23.32 510.1L25.05 515.93L26.99 521.66L29.14 527.29L31.49 532.8L34.03 538.2L36.77 543.48L39.69 548.63L42.79 553.66L46.07 558.54L49.53 563.29L53.15 567.89L56.93 572.34L60.87 576.63L64.97 580.76L69.21 584.73L73.6 588.53L78.13 592.15L82.79 595.59L87.58 598.84L92.5 601.91L97.53 604.77L102.68 607.44L107.94 609.9L113.31 612.15L118.78 614.19L124.34 616L129.99 617.59L135.74 618.95L141.56 620.07L147.46 620.95L153.43 621.59L159.47 621.97L165.58 622.1L171.68 621.97L177.72 621.59L183.69 620.95L189.59 620.07L195.42 618.95L201.16 617.59L206.81 616L212.38 614.19L217.84 612.15L223.21 609.9L228.47 607.44L233.62 604.77L238.66 601.91L243.57 598.84L248.36 595.59L253.02 592.15L257.55 588.53L261.94 584.73L266.18 580.76L270.28 576.63L274.22 572.34L278 567.89L281.62 563.29L285.08 558.54L288.36 553.66L291.46 548.63L294.38 543.48L297.12 538.2L299.66 532.8L302.01 527.29L304.16 521.66L306.1 515.93L307.83 510.1L309.34 504.17L310.64 498.15L311.71 492.04L312.55 485.86L313.16 479.59L313.52 473.26L313.65 466.86L313.65 173.27L313.52 166.87L313.16 160.54L312.55 154.28L311.71 148.09L310.64 141.98L309.34 135.96L307.83 130.04L306.1 124.2L304.16 118.47L302.01 112.84L299.66 107.33L297.12 101.93L294.38 96.65L291.46 91.5L288.36 86.47L285.08 81.59L281.62 76.84L278 72.24L274.22 67.79L270.28 63.5L266.18 59.37L261.94 55.4L257.55 51.6L253.02 47.98L248.36 44.54L243.57 41.29L238.66 38.23L233.62 35.36L228.47 32.69L223.21 30.23L217.84 27.98L212.38 25.94L206.81 24.13L201.16 22.54L195.42 21.18L189.59 20.06L183.69 19.18L177.72 18.55L171.68 18.16L165.58 18.03L159.47 18.16L153.43 18.55Z" id="g6tDXdA6Ke"></path><path d="M244.29 245.93L244.45 245.94L244.61 245.97L244.77 246L244.93 246.04L245.09 246.08L245.24 246.13L245.4 246.18L245.54 246.25L245.69 246.31L245.83 246.38L245.97 246.46L246.11 246.55L246.24 246.63L246.37 246.73L246.49 246.83L246.62 246.93L246.73 247.04L246.85 247.15L246.96 247.27L247.06 247.39L247.16 247.51L247.26 247.64L247.35 247.78L247.43 247.91L247.51 248.05L247.59 248.2L247.66 248.34L247.72 248.49L247.78 248.65L247.84 248.8L247.88 248.96L247.93 249.12L247.96 249.29L247.99 249.45L248.02 249.62L248.03 249.79L248.04 249.96L248.05 250.14L248.05 271.14L248 273.66L247.85 276.15L247.61 278.61L247.27 281.04L246.84 283.44L246.32 285.81L245.72 288.14L245.02 290.43L244.25 292.69L243.39 294.9L242.45 297.07L241.43 299.19L240.34 301.27L239.17 303.29L237.93 305.27L236.61 307.19L235.23 309.05L233.78 310.86L232.27 312.61L230.69 314.3L229.05 315.92L227.36 317.48L225.6 318.97L223.79 320.4L221.92 321.75L220.01 323.03L218.04 324.23L216.02 325.36L213.96 326.41L211.86 327.38L209.71 328.26L207.52 329.06L205.3 329.77L203.04 330.4L200.74 330.93L198.41 331.37L196.05 331.72L193.66 331.97L191.24 332.12L188.8 332.17L175.68 332.17L175.68 403.74L175.65 404.02L175.62 404.29L175.58 404.56L175.53 404.83L175.47 405.1L175.4 405.36L175.32 405.62L175.23 405.87L175.13 406.12L175.03 406.36L174.92 406.6L174.8 406.84L174.67 407.07L174.53 407.29L174.39 407.51L174.24 407.73L174.08 407.93L173.92 408.14L173.75 408.33L173.57 408.52L173.39 408.7L173.2 408.88L173 409.05L172.8 409.21L172.59 409.37L172.38 409.51L172.16 409.65L171.94 409.78L171.71 409.91L171.48 410.02L171.24 410.13L171 410.23L170.75 410.32L170.5 410.4L170.25 410.47L169.99 410.54L169.73 410.59L169.47 410.63L169.2 410.67L168.93 410.69L168.63 410.7L168.33 410.71L168.04 410.69L167.75 410.67L167.46 410.64L167.18 410.59L166.9 410.53L166.62 410.47L166.35 410.39L166.08 410.3L165.81 410.2L165.55 410.09L165.3 409.96L165.05 409.83L164.81 409.69L164.57 409.54L164.34 409.39L164.11 409.22L163.89 409.04L163.68 408.86L163.47 408.67L163.27 408.46L163.08 408.26L162.9 408.04L162.72 407.82L162.56 407.59L162.4 407.35L162.25 407.1L162.11 406.85L161.98 406.6L161.85 406.33L161.74 406.07L161.64 405.79L161.55 405.51L161.47 405.23L161.39 404.94L161.33 404.65L161.29 404.35L161.25 404.05L161.22 403.74L161.22 332.17L147.88 332.17L145.44 332.12L143.02 331.97L140.63 331.72L138.27 331.37L135.94 330.93L133.64 330.4L131.38 329.77L129.15 329.06L126.96 328.26L124.82 327.38L122.71 326.41L120.65 325.36L118.64 324.23L116.67 323.03L114.75 321.75L112.89 320.4L111.08 318.97L109.32 317.48L107.62 315.92L105.98 314.3L104.41 312.61L102.89 310.86L101.44 309.05L100.06 307.19L98.75 305.27L97.51 303.29L96.34 301.27L95.24 299.19L94.23 297.07L93.29 294.9L92.43 292.69L91.65 290.43L90.96 288.14L90.35 285.81L89.83 283.44L89.41 281.04L89.07 278.61L88.83 276.15L88.68 273.66L88.63 271.14L88.63 250.14L88.63 249.96L88.64 249.79L88.66 249.62L88.68 249.45L88.71 249.29L88.75 249.12L88.79 248.96L88.84 248.8L88.89 248.65L88.95 248.49L89.02 248.34L89.09 248.2L89.16 248.05L89.25 247.91L89.33 247.78L89.42 247.64L89.52 247.51L89.62 247.39L89.72 247.27L89.83 247.15L89.94 247.04L90.06 246.93L90.18 246.83L90.31 246.73L90.44 246.64L90.57 246.55L90.71 246.46L90.85 246.39L90.99 246.31L91.13 246.25L91.28 246.19L91.43 246.13L91.59 246.08L91.74 246.04L91.9 246L92.06 245.97L92.23 245.95L92.39 245.93L92.56 245.92L92.73 245.91L113.12 245.91L114.95 245.95L116.76 246.03L118.56 246.18L120.35 246.37L122.12 246.63L123.88 246.94L125.63 247.3L127.35 247.71L129.07 248.18L130.76 248.69L132.43 249.26L134.09 249.88L135.72 250.54L137.33 251.26L138.92 252.02L140.49 252.83L142.03 253.69L143.54 254.59L145.02 255.54L146.48 256.53L147.91 257.56L149.31 258.64L150.68 259.76L152.02 260.93L153.32 262.13L154.59 263.37L155.83 264.66L157.03 265.98L158.19 267.34L159.31 268.74L160.4 270.17L161.45 271.64L162.45 273.15L163.42 274.69L164.34 276.26L165.22 277.87L166.05 279.51L166.84 281.19L167.58 282.89L168.27 284.63L168.97 282.89L169.71 281.19L170.5 279.51L171.33 277.87L172.21 276.26L173.13 274.69L174.1 273.15L175.1 271.64L176.15 270.17L177.23 268.74L178.36 267.34L179.52 265.98L180.72 264.66L181.96 263.37L183.23 262.13L184.53 260.93L185.87 259.76L187.24 258.64L188.64 257.56L190.07 256.53L191.52 255.54L193.01 254.59L194.52 253.69L196.06 252.83L197.63 252.02L199.22 251.26L200.83 250.54L202.46 249.88L204.11 249.26L205.79 248.69L207.48 248.18L209.19 247.71L210.92 247.3L212.67 246.94L214.43 246.63L216.2 246.37L217.99 246.18L219.79 246.03L221.6 245.95L223.42 245.91L243.82 245.91L243.85 245.91L243.86 245.91L243.89 245.91L243.91 245.91L243.95 245.91L244.12 245.92L244.29 245.93ZM107.51 259.83L107.28 259.84L107.04 259.87L106.81 259.91L106.58 259.95L106.35 260.01L106.13 260.07L105.91 260.14L105.7 260.23L105.49 260.32L105.28 260.42L105.08 260.53L104.88 260.64L104.69 260.77L104.51 260.9L104.33 261.04L104.15 261.19L103.99 261.34L103.82 261.5L103.67 261.67L103.52 261.84L103.38 262.02L103.24 262.2L103.11 262.4L102.99 262.59L102.88 262.79L102.78 263L102.68 263.21L102.59 263.43L102.51 263.65L102.44 263.87L102.37 264.1L102.32 264.34L102.28 264.57L102.24 264.81L102.22 265.05L102.2 265.3L102.2 265.55L102.2 277.66L102.23 279.42L102.34 281.16L102.52 282.88L102.77 284.58L103.08 286.25L103.46 287.9L103.91 289.52L104.42 291.12L104.98 292.68L105.61 294.21L106.3 295.71L107.05 297.18L107.85 298.61L108.7 300L109.61 301.35L110.57 302.67L111.58 303.94L112.63 305.17L113.73 306.35L114.88 307.48L116.07 308.57L117.31 309.61L118.58 310.6L119.9 311.53L121.25 312.41L122.64 313.24L124.06 314L125.52 314.71L127 315.36L128.52 315.95L130.07 316.47L131.64 316.93L133.25 317.32L134.87 317.65L136.52 317.9L138.19 318.08L139.88 318.2L141.59 318.23L158.9 318.2L158.9 300.4L158.87 298.64L158.76 296.9L158.58 295.18L158.33 293.48L158.02 291.8L157.64 290.16L157.19 288.53L156.68 286.94L156.11 285.37L155.49 283.84L154.8 282.34L154.05 280.88L153.25 279.45L152.4 278.05L151.49 276.7L150.53 275.39L149.52 274.12L148.47 272.89L147.36 271.71L146.22 270.57L145.03 269.48L143.79 268.44L142.52 267.46L141.2 266.52L139.85 265.64L138.46 264.82L137.04 264.05L135.58 263.34L134.1 262.69L132.58 262.11L131.03 261.58L129.45 261.13L127.85 260.73L126.23 260.41L124.58 260.15L122.91 259.97L121.22 259.86L119.51 259.82L107.76 259.82L107.51 259.83ZM218.88 260.06L217 260.19L215.14 260.4L213.31 260.69L211.5 261.06L209.72 261.51L207.97 262.03L206.26 262.63L204.57 263.3L202.92 264.04L201.31 264.85L199.74 265.72L198.2 266.66L196.71 267.66L195.27 268.73L193.87 269.85L192.51 271.03L191.21 272.27L189.95 273.56L188.75 274.91L187.61 276.3L186.51 277.74L185.48 279.23L184.51 280.77L183.6 282.35L182.75 283.97L181.96 285.63L181.24 287.33L180.59 289.06L180.01 290.83L179.51 292.63L179.07 294.47L178.71 296.33L178.43 298.22L178.22 300.13L178.1 302.07L178.06 304.03L178.06 317.87L191.56 318.07L193.46 318.03L195.35 317.9L197.21 317.69L199.04 317.4L200.85 317.03L202.63 316.58L204.38 316.06L206.09 315.46L207.78 314.79L209.43 314.05L211.04 313.24L212.61 312.37L214.14 311.43L215.63 310.42L217.08 309.36L218.48 308.24L219.84 307.05L221.14 305.82L222.39 304.53L223.6 303.18L224.74 301.79L225.83 300.34L226.87 298.85L227.84 297.32L228.75 295.74L229.6 294.12L230.39 292.46L231.1 290.76L231.75 289.03L232.33 287.26L232.84 285.45L233.28 283.62L233.64 281.76L233.92 279.87L234.12 277.96L234.25 276.02L234.29 274.06L234.42 265.74L234.41 265.49L234.39 265.24L234.37 264.99L234.33 264.74L234.28 264.5L234.23 264.26L234.16 264.03L234.09 263.8L234 263.57L233.91 263.35L233.81 263.13L233.7 262.92L233.58 262.72L233.45 262.52L233.32 262.32L233.17 262.14L233.03 261.96L232.87 261.78L232.71 261.61L232.54 261.45L232.36 261.3L232.18 261.15L231.99 261.01L231.8 260.88L231.6 260.76L231.39 260.65L231.18 260.54L230.97 260.45L230.75 260.36L230.52 260.28L230.3 260.21L230.07 260.15L229.83 260.11L229.59 260.07L229.35 260.04L229.1 260.02L228.86 260.02L220.79 260.02L218.88 260.06Z" id="gjCpKh5Hc"></path></defs><g><g><use xlink:href="#g6tDXdA6Ke" opacity="1" fill="#ffffff" fill-opacity="1"></use><g><use xlink:href="#g6tDXdA6Ke" opacity="1" fill-opacity="0" stroke="#000000" stroke-width="1" stroke-opacity="0"></use></g></g><g><use xlink:href="#gjCpKh5Hc" opacity="1" fill="#ffffff" fill-opacity="1"></use><g><use xlink:href="#gjCpKh5Hc" opacity="1" fill-opacity="0" stroke="#000000" stroke-width="1" stroke-opacity="0"></use></g></g></g></svg>