<?xml version="1.0"?>
<svg xmlns="http://www.w3.org/2000/svg" height="512px" viewBox="0 0 512 512" width="512px"><path d="m270 481.539062h60v30h-60zm0 0" fill="#FFFFFF"/><path d="m0 481.539062h60v30h-60zm0 0" fill="#FFFFFF"/><path d="m90 481.539062h60v30h-60zm0 0" fill="#FFFFFF"/><path d="m180 481.539062h60v30h-60zm0 0" fill="#FFFFFF"/><path d="m418 396.4375v22.101562h-20.800781l62.5 63h-99.699219v30h152v-30h-8.699219zm0 0" fill="#FFFFFF"/><path d="m218.699219 239.539062h-127.199219l59.699219 60h127.5zm0 0" fill="#FFFFFF"/><path d="m9.800781 148.539062c4.800781 11.101563 12 21.597657 21.300781 30.597657l30.398438 30.402343h127.199219l-61-61zm0 0" fill="#FFFFFF"/><path d="m210 61.039062-30.398438-30.398437c-9-9.003906-19.5-16.203125-30.601562-21v117.597656l61 61zm0 0" fill="#FFFFFF"/><path d="m300 151.339844-60-60.300782v127.199219l60 60zm0 0" fill="#FFFFFF"/><path d="m330 181.339844v126.898437l88 88.199219v-126.898438zm0 0" fill="#FFFFFF"/><path d="m181.199219 329.539062 88.5 89h127.5l-88.5-89zm0 0" fill="#FFFFFF"/><path d="m1.101562 118.539062h96.597657l-34.800781-34.800781 21.300781-21.296875 34.800781 34.796875v-96.300781c-31.199219-4.199219-63.898438 5.699219-87.898438 29.703125-24 23.996094-33.902343 56.695313-30 87.898437zm0 0" fill="#FFFFFF"/></svg>
