<?xml version="1.0" encoding="iso-8859-1"?>
<!-- Generator: Adobe Illustrator 19.0.0, SVG Export Plug-In . SVG Version: 6.00 Build 0)  -->
<svg xmlns="http://www.w3.org/2000/svg" xmlns:xlink="http://www.w3.org/1999/xlink" version="1.1" id="Capa_1" x="0px" y="0px" viewBox="0 0 469.478 469.478" style="enable-background:new 0 0 469.478 469.478;" xml:space="preserve" width="512px" height="512px">
<g>
	<path d="M461.977,381.732h-8.999v-49.875c0-4.142-3.358-7.5-7.5-7.5h-47.997V214.148c0-2.113-0.892-4.128-2.455-5.55   l-11.619-10.563V95.246c0-2.377-1.127-4.613-3.037-6.028l-24.31-17.999c-2.276-1.685-5.307-1.945-7.838-0.67   c-2.529,1.274-4.125,3.865-4.125,6.698v91.964l-11.056,13.267c-1.123,1.348-1.738,3.047-1.738,4.801v103.97h-8.03v-53.807   c0-4.142-3.358-7.5-7.5-7.5h-35.078v-67.501c0-4.142-3.358-7.5-7.5-7.5h-35.244c-4.142,0-7.5,3.358-7.5,7.5v41.648h-7.027v-70.546   c0-4.142-3.358-7.5-7.5-7.5H180.68c-4.142,0-7.5,3.358-7.5,7.5v140.916h-29.055v-93.576c0-4.142-3.358-7.5-7.5-7.5h-33.042   c-4.142,0-7.5,3.358-7.5,7.5v55.193H75.237c-4.142,0-7.5,3.358-7.5,7.5v113.408h-9.239v-78.746c0-4.142-3.358-7.5-7.5-7.5H26.999   c-4.142,0-7.5,3.358-7.5,7.5v103.495H7.5c-4.142,0-7.5,3.358-7.5,7.5s3.358,7.5,7.5,7.5h19.499c4.142,0,7.5-3.358,7.5-7.5V285.737   h8.999v78.746c0,4.142,3.358,7.5,7.5,7.5h16.739v5.249c0,4.142,3.358,7.5,7.5,7.5s7.5-3.358,7.5-7.5V251.075h13.346v9.163   c0,4.142,3.358,7.5,7.5,7.5s7.5-3.358,7.5-7.5v-71.855h18.042v86.076h-16.629c-4.142,0-7.5,3.358-7.5,7.5v71.275   c0,4.142,3.358,7.5,7.5,7.5s7.5-3.358,7.5-7.5v-63.775h53.185v27.776c0,4.142,3.358,7.5,7.5,7.5s7.5-3.358,7.5-7.5V141.043h20.244   v96.697c0,4.142,3.358,7.5,7.5,7.5s7.5-3.358,7.5-7.5v-18.65h14.527c4.142,0,7.5-3.358,7.5-7.5v-41.649h20.244v60.001h-24.207   c-4.142,0-7.5,3.358-7.5,7.5v46.794H217.49c-4.142,0-7.5,3.358-7.5,7.5v59.997c0,4.142,3.358,7.5,7.5,7.5s7.5-3.358,7.5-7.5   v-52.497h35.998v92.995c0,4.142,3.358,7.5,7.5,7.5s7.5-3.358,7.5-7.5V291.737c0-4.142-3.358-7.5-7.5-7.5h-19.499v-39.294h59.285   v93.292c0,4.142,3.358,7.5,7.5,7.5s7.5-3.358,7.5-7.5v-31.984h8.03v10.985c0,4.142,3.358,7.5,7.5,7.5s7.5-3.358,7.5-7.5v-127.24   l11.056-13.267c1.123-1.348,1.738-3.047,1.738-4.801V92.133l9.31,6.893v102.329c0,2.113,0.892,4.128,2.455,5.55l11.619,10.563   v135.768c0,4.142,3.358,7.5,7.5,7.5s7.5-3.358,7.5-7.5V339.36h40.497v49.875c0,4.142,3.358,7.5,7.5,7.5h16.499   c4.142,0,7.5-3.358,7.5-7.5S466.119,381.732,461.977,381.732z" fill="#FFFFFF"/>
</g>
<g>
</g>
<g>
</g>
<g>
</g>
<g>
</g>
<g>
</g>
<g>
</g>
<g>
</g>
<g>
</g>
<g>
</g>
<g>
</g>
<g>
</g>
<g>
</g>
<g>
</g>
<g>
</g>
<g>
</g>
</svg>
