<?xml version="1.0" encoding="utf-8"?>
<!-- Generator: Adobe Illustrator 23.0.1, SVG Export Plug-In . SVG Version: 6.00 Build 0)  -->
<svg version="1.1" xmlns="http://www.w3.org/2000/svg" xmlns:xlink="http://www.w3.org/1999/xlink" x="0px" y="0px"
	 viewBox="0 0 382.9 387.74" style="enable-background:new 0 0 382.9 387.74;" xml:space="preserve">
<style type="text/css">
	.st0{fill:#4E5B4A;}
	.st1{fill:#98AA8A;}
	.st2{fill:none;stroke:#98AA8A;stroke-width:2;stroke-miterlimit:10;}
	.st3{fill:none;stroke:#FFFFFF;stroke-width:4;stroke-miterlimit:10;}
	.st4{fill:#FFFFFF;}
	.st5{fill:none;stroke:#FFFFFF;stroke-miterlimit:10;}
	.st6{fill:none;stroke:#FFFFFF;stroke-width:2.5;stroke-miterlimit:10;}
	.st7{fill:none;stroke:#FFFFFF;stroke-width:5;stroke-miterlimit:10;}
	.st8{fill:#FFFFFF;stroke:#4E5B4A;stroke-width:4;stroke-miterlimit:10;}
	.st9{fill:#FFFFFF;stroke:#4E5B4A;stroke-width:7;stroke-miterlimit:10;}
</style>
<g id="Layer_6">
</g>
<g id="Layer_2">
</g>
<g id="Layer_4">
</g>
<g id="Layer_5">
</g>
<g id="Layer_1">
</g>
<g id="Layer_3">
	<g>
		<g>
			<g>
				<path class="st0" d="M190.26,314.69c-3.4,0-6.16,2.76-6.16,6.16c0,3.4,2.76,6.16,6.16,6.16c3.4,0,6.16-2.76,6.16-6.16
					C196.42,317.45,193.66,314.69,190.26,314.69L190.26,314.69z M190.26,314.69"/>
				<path class="st0" d="M320.06,73.25h-6.93V54.77c0-10.2-8.27-18.48-18.48-18.48H85.24c-10.2,0-18.48,8.27-18.48,18.48v18.48
					h-5.98c-2.91,0-5.58,1.94-6.19,4.79c-0.86,4,2.16,7.53,6.01,7.53h6.16v20.12c0,10.2,8.27,18.48,18.48,18.48h209.41
					c10.2,0,18.48-8.27,18.48-18.48V85.57h6.98c3.4,0,6.16,2.76,6.16,6.16v40.55c0,3.06-2.2,5.63-5.24,6.09
					c-0.05,0.01-0.09,0.01-0.14,0.02L199.84,159.8c-9.07,1.43-15.64,9.09-15.64,18.25v7.7h-18.02c-4.27,0-8.5,1.31-11.84,3.97
					c-4.5,3.59-7.01,8.86-7.01,14.5c0,9.91,7.82,18.02,17.6,18.45l-11.11,86.79c0,0,0,0,0,0.01l0,0.04c0,0,0,0.01,0,0.01
					c-0.22,1.65-0.33,3.32-0.33,4.96c0,20.38,16.54,36.96,36.86,36.96c20.32,0,36.86-16.58,36.86-36.96c0-1.64-0.11-3.3-0.33-4.95
					c0-0.01,0-0.01,0-0.02l-11.12-86.83c5.83-0.26,11.17-3.22,14.59-8.31c1.18-1.75,2.03-3.72,2.5-5.78
					c2.78-12.08-6.34-22.85-17.93-22.85h-18.4v-7.89c0-3.06,2.2-5.62,5.24-6.08c0.05-0.01,0.09-0.01,0.14-0.02l121.06-21.37
					c9.06-1.42,15.64-9.07,15.64-18.22V91.7C338.59,81.53,330.28,73.25,320.06,73.25L320.06,73.25z M294.66,111.85H85.24
					c-3.4,0-6.16-2.76-6.16-6.16V54.77c0-3.4,2.76-6.16,6.16-6.16h209.41c3.4,0,6.16,2.76,6.16,6.16v50.92
					C300.82,109.09,298.06,111.85,294.66,111.85z M190.26,339.13c-13.59,0-24.64-11.05-24.64-24.64c0-1.11,0.08-2.24,0.23-3.36
					c0-0.01,0-0.01,0-0.02c0-0.01,0-0.01,0-0.02l11.34-88.38h26.12l11.34,88.38c0,0.01,0,0.01,0,0.02c0,0.01,0,0.01,0,0.02
					c0.15,1.12,0.23,2.25,0.23,3.36C214.9,328.07,203.85,339.13,190.26,339.13L190.26,339.13z M220.49,201.56
					c1.39,3.21,0.16,6.63-2.85,8.21c-0.85,0.44-1.81,0.62-2.76,0.62l-49.33,0c-2.35,0-4.57-1.32-5.51-3.48
					c-1.39-3.21-0.16-6.63,2.85-8.21c0.85-0.44,1.81-0.62,2.76-0.62l49.33,0C217.33,198.08,219.55,199.4,220.49,201.56z
					 M214.9,198.28"/>
			</g>
			<path class="st9" d="M294.81,44.76H86.56c-6.63,0-11.96,0-11.96,11.59v15.4c0,2.76,2.29,5,5.12,5h6.19c2.83,0,5.12,2.24,5.12,5
				v2.38c0,8.2,7,14.9,15.56,14.9s15.56-6.7,15.56-14.9v-7.39h0.32c1.22,5.12,6,8.98,11.7,8.98c4.56,0,8.54-2.47,10.57-6.08
				c0.96-1.71,2.65-2.89,4.64-2.89h94.88v12.5c0,5.14,4.21,9.35,9.35,9.35c5.14,0,9.35-4.21,9.35-9.35v-12.5H301
				c2.83,0,5.12-2.24,5.12-5V55.82C306.12,49.71,301.05,44.76,294.81,44.76z"/>
		</g>
		<path class="st0" d="M117.4,135.42l-9.7,4.54c-11.9,5.57-18.63,17.77-17.86,30.16c-9.02-8.53-22.69-11.17-34.6-5.59l-9.7,4.54
			c-1.08,0.5-1.54,1.79-1.04,2.86l4.54,9.7c7.28,15.54,25.84,22.26,41.37,14.99l6.24-2.92l13.94,29.77
			c0.01,0.03,0.01,0.06,0.02,0.09l1.35,2.88c0.01,0.03,0.04,0.04,0.05,0.07l0.11,0.24l0.05-0.02c0.99,1.68,3.09,2.4,4.89,1.56
			c1.8-0.84,2.58-2.92,1.93-4.75l0.05-0.02l-0.11-0.24c-0.01-0.03-0.01-0.06-0.02-0.09l-1.35-2.88c-0.01-0.03-0.04-0.04-0.05-0.07
			l-13.94-29.78l6.24-2.92c15.54-7.28,22.26-25.84,14.99-41.38l-4.54-9.7C119.76,135.38,118.48,134.92,117.4,135.42z M84.41,191.6
			c-10.35,4.85-22.67,0.38-27.52-9.97l-2.62-5.59c-0.68-1.46-0.05-3.2,1.4-3.88l5.59-2.62c10.35-4.85,22.67-0.39,27.52,9.96
			l2.77,5.91l1.14,2.28L84.41,191.6z M118.93,150.55c5.26,11.23,0.42,24.59-10.81,29.84l-6.46,2.93l-1.1-2.2l-1.96-4.18
			c-5.26-11.22-0.42-24.59,10.81-29.84l3.84-1.8c1.46-0.68,3.2-0.05,3.88,1.4L118.93,150.55z"/>
	</g>
</g>
</svg>
