<?xml version="1.0" encoding="utf-8"?>
<!-- Generator: Adobe Illustrator 23.0.1, SVG Export Plug-In . SVG Version: 6.00 Build 0)  -->
<svg version="1.1" xmlns="http://www.w3.org/2000/svg" xmlns:xlink="http://www.w3.org/1999/xlink" x="0px" y="0px"
	 viewBox="0 0 382.9 387.74" style="enable-background:new 0 0 382.9 387.74;" xml:space="preserve">
<style type="text/css">
	.st0{fill:#4E5B4A;}
	.st1{fill:#98AA8A;}
	.st2{fill:none;stroke:#98AA8A;stroke-width:2;stroke-miterlimit:10;}
	.st3{fill:none;stroke:#FFFFFF;stroke-width:4;stroke-miterlimit:10;}
	.st4{fill:#FFFFFF;}
	.st5{fill:none;stroke:#FFFFFF;stroke-miterlimit:10;}
	.st6{fill:none;stroke:#FFFFFF;stroke-width:2.5;stroke-miterlimit:10;}
	.st7{fill:none;stroke:#FFFFFF;stroke-width:5;stroke-miterlimit:10;}
	.st8{fill:#FFFFFF;stroke:#4E5B4A;stroke-width:4;stroke-miterlimit:10;}
	.st9{fill:#FFFFFF;stroke:#4E5B4A;stroke-width:7;stroke-miterlimit:10;}
</style>
<g id="Layer_6">
</g>
<g id="Layer_2">
</g>
<g id="Layer_4">
</g>
<g id="Layer_5">
</g>
<g id="Layer_1">
	<g>
		<g>
			<path class="st0" d="M167.04,338.36v-12.08h146.11v12.08H167.04L167.04,338.36z M100.62,338.36V229.68h54.34v108.68H100.62
				L100.62,338.36z M76.47,338.36v-12.08h12.08v12.08H76.47L76.47,338.36z M52.52,169.31c0.81-12.4,4.15-23.49,9.59-31.68
				c7.33-11.03,18.26-16.62,32.48-16.62h9.66c-8.86,10.53-14.31,27.19-15.47,48.3H52.52L52.52,169.31z M100.62,53.38h188.37v55.55
				H100.62V53.38L100.62,53.38z M327.51,137.63c5.44,8.19,8.77,19.27,9.59,31.68h-37.47c-1.16-21.11-6.61-37.77-15.47-48.3h10.87
				C309.25,121.01,320.18,126.6,327.51,137.63L327.51,137.63z M237.14,121.01h25.76c16.2,3.8,23.23,26.36,24.61,48.3h-39.74
				c-0.39-10.23-1.62-23.03-4.88-34.39C241.32,129.45,239.4,124.81,237.14,121.01L237.14,121.01z M200.85,169.31v-48.3h19.86
				c8.14,3.51,13.94,22.37,14.99,48.3H200.85L200.85,169.31z M152.72,169.31c1.04-25.93,6.84-44.79,14.99-48.3h21.07v48.3H152.72
				L152.72,169.31z M100.89,169.31c1.39-21.94,8.42-44.5,24.61-48.3h25.76c-2.25,3.8-4.17,8.44-5.75,13.91
				c-3.27,11.36-4.49,24.16-4.88,34.39H100.89L100.89,169.31z M313.14,181.38v12.08H76.47v-12.08H313.14L313.14,181.38z M161,217.61
				H94.59c-3.33,0-6.04,2.7-6.04,6.04v90.56H76.47V205.53h236.67v108.68H167.04v-90.56C167.04,220.31,164.33,217.61,161,217.61
				L161,217.61z M343.33,338.36h-18.11V181.38h18.11c3.33,0,6.04-2.7,6.04-6.04c0-17.18-4.19-32.94-11.8-44.4
				c-8.49-12.78-21.03-20.21-36.5-21.72V47.35c0-3.33-2.7-6.04-6.04-6.04H94.59c-3.33,0-6.04,2.7-6.04,6.04v61.88
				c-15.47,1.51-28.01,8.94-36.5,21.72c-7.61,11.45-11.8,27.22-11.8,44.4c0,3.33,2.7,6.04,6.04,6.04H64.4v163.01
				c0,3.33,2.7,6.04,6.04,6.04h272.9c3.33,0,6.04-2.71,6.04-6.04C349.37,341.07,346.66,338.36,343.33,338.36L343.33,338.36z"/>
			<path class="st0" d="M209.3,229.68h54.34v54.34H209.3V229.68L209.3,229.68z M189.38,296.09h94.19c3.33,0,6.04-2.7,6.04-6.04
				s-2.7-6.04-6.04-6.04h-7.85v-60.38c0-3.33-2.7-6.04-6.04-6.04h-66.41c-3.33,0-6.04,2.7-6.04,6.04v60.38h-7.85
				c-3.33,0-6.04,2.7-6.04,6.04S186.04,296.09,189.38,296.09L189.38,296.09z"/>
			<path class="st0" d="M136.85,275.57c3.33,0,6.04,2.7,6.04,6.04s-2.7,6.04-6.04,6.04c-3.33,0-6.04-2.7-6.04-6.04
				S133.51,275.57,136.85,275.57L136.85,275.57z"/>
		</g>
		<g>
			<path class="st0" d="M102.97,79c0-7.76,6.41-13.93,14.24-13.93c3.28,0,6.41,1.12,8.8,3.01c1,0.73,1.16,2.16,0.42,3.13
				c-0.73,0.93-2.16,1.12-3.13,0.35c-1.66-1.27-3.78-2.08-6.1-2.08c-2.78,0-5.21,1.04-6.94,2.82c-1.81,1.74-2.89,4.09-2.89,6.71
				c0,2.55,1.08,4.9,2.89,6.64c1.74,1.78,4.17,2.82,6.94,2.82c1.93,0,3.74-0.58,5.29-1.47V81.7h-5.52c-1.2,0-2.2-1-2.2-2.2
				c0-1.23,1-2.16,2.2-2.16h7.6c0.04,0,0.04,0,0.04,0c0.04,0,0.04,0,0.04,0c1.23,0,2.24,0.93,2.24,2.16v8.53
				c0,0.27-0.08,0.42-0.12,0.66c-0.04,0.08-0.04,0.12-0.08,0.19v0.04c-0.12,0.35-0.35,0.66-0.73,0.93
				c-2.43,1.89-5.48,3.01-8.76,3.01C109.38,92.86,102.97,86.72,102.97,79z"/>
			<path class="st0" d="M153.44,89.65c0.39,1.12-0.23,2.32-1.35,2.7c-0.15,0.04-0.46,0.12-0.85,0.12c0,0,0,0-0.04,0
				c-0.39,0-0.96-0.08-1.5-0.42c-0.5-0.31-0.93-0.81-1.23-1.35c-0.54-1.12-0.81-2.51-0.81-4.63c-0.04-0.73-0.19-1.23-0.46-1.66
				c-0.23-0.42-0.69-0.81-1.16-1.12c-0.81-0.54-1.81-0.85-2.16-0.93h-4.55v8.37c0,1.16-0.96,2.12-2.16,2.12
				c-1.2,0-2.12-0.96-2.12-2.12V67.97c0-1.2,0.93-2.12,2.12-2.12c0,0,0,0,0.04,0h6.87c4.59,0,8.26,3.7,8.26,8.3
				c0,2.55-1.16,4.78-3.01,6.33c0.5,0.39,0.96,0.85,1.35,1.43c0.77,1.12,1.27,2.55,1.27,4.17c-0.04,1.16,0.08,1.89,0.15,2.28
				C152.71,88.54,153.21,89,153.44,89.65z M148.04,74.14c0-2.24-1.77-4.01-3.97-4.01h-4.75v7.95h4.75
				C146.26,78.08,148.04,76.3,148.04,74.14z"/>
			<path class="st0" d="M180.33,69.2c2.39,2.55,3.9,5.94,3.9,9.76s-1.5,7.25-3.9,9.76c-2.28,2.51-5.67,4.13-9.22,4.13
				c-3.7,0-7.1-1.62-9.45-4.13c-2.39-2.51-3.82-5.94-3.82-9.76s1.43-7.22,3.82-9.76c2.35-2.55,5.75-4.13,9.45-4.13
				C174.66,65.07,178.05,66.65,180.33,69.2z M179.83,78.96c0-2.62-1.04-5.06-2.62-6.75c-1.62-1.74-3.78-2.74-6.1-2.74
				c-2.47,0-4.63,1-6.25,2.74c-1.62,1.7-2.62,4.13-2.62,6.75s1,5.06,2.62,6.71c1.62,1.74,3.78,2.78,6.25,2.78
				c2.32,0,4.48-1.04,6.1-2.78C178.79,84.02,179.83,81.59,179.83,78.96z"/>
			<path class="st0" d="M189.47,78.96c0.04-7.64,6.44-13.85,14.16-13.89c3.39,0,6.48,1.12,8.91,3.01c0.93,0.77,1.08,2.12,0.39,3.09
				c-0.77,0.96-2.2,1.12-3.09,0.42c-1.7-1.39-3.82-2.12-6.21-2.12c-2.66,0-5.13,1.08-6.95,2.78c-1.74,1.77-2.82,4.09-2.82,6.71
				s1.08,5.02,2.82,6.71c1.81,1.7,4.28,2.78,6.95,2.78c2.39,0,4.47-0.73,6.21-2.12c0.89-0.66,2.31-0.5,3.09,0.42
				c0.69,0.96,0.54,2.35-0.39,3.09c-2.43,1.89-5.52,3.01-8.91,3.01C195.91,92.86,189.5,86.64,189.47,78.96z"/>
			<path class="st0" d="M220.41,90.74V67.97c0-1.2,0.93-2.12,2.12-2.12h0.04c0,0,0,0,0.08,0h12.5c1.12,0,2.12,0.93,2.12,2.12
				s-1,2.16-2.12,2.16h-10.46v7.06h8.99c1.16,0,2.12,1,2.12,2.12c0,1.2-0.96,2.16-2.12,2.16h-8.99v7.1h10.46
				c1.12,0,2.12,0.96,2.12,2.16c0,1.16-1,2.12-2.12,2.12h-12.5c-0.08,0-0.08-0.04-0.08-0.04l-0.04,0.04
				C221.33,92.86,220.41,91.89,220.41,90.74z"/>
			<path class="st0" d="M261.92,89.65c0.39,1.12-0.23,2.32-1.35,2.7c-0.15,0.04-0.46,0.12-0.85,0.12c0,0,0,0-0.04,0
				c-0.39,0-0.96-0.08-1.5-0.42c-0.5-0.31-0.93-0.81-1.23-1.35c-0.54-1.12-0.81-2.51-0.81-4.63c-0.04-0.73-0.19-1.23-0.46-1.66
				c-0.23-0.42-0.69-0.81-1.16-1.12c-0.81-0.54-1.81-0.85-2.16-0.93h-4.55v8.37c0,1.16-0.96,2.12-2.16,2.12
				c-1.2,0-2.12-0.96-2.12-2.12V67.97c0-1.2,0.93-2.12,2.12-2.12c0,0,0,0,0.04,0h6.87c4.59,0,8.26,3.7,8.26,8.3
				c0,2.55-1.16,4.78-3.01,6.33c0.5,0.39,0.96,0.85,1.35,1.43c0.77,1.12,1.27,2.55,1.27,4.17c-0.04,1.16,0.08,1.89,0.15,2.28
				C261.19,88.54,261.69,89,261.92,89.65z M256.52,74.14c0-2.24-1.77-4.01-3.97-4.01h-4.75v7.95h4.75
				C254.75,78.08,256.52,76.3,256.52,74.14z"/>
			<path class="st0" d="M286,69.47l-7.91,10.84v10.42c0,1.2-0.93,2.12-2.12,2.12c-1.12,0-2.12-0.93-2.12-2.12V80.32l-7.83-10.84
				c-0.73-0.93-0.54-2.24,0.42-2.93s2.28-0.5,2.93,0.46l6.6,9.03l6.6-9.03c0.73-0.96,2.04-1.16,2.97-0.46
				C286.46,67.23,286.65,68.55,286,69.47z"/>
		</g>
	</g>
</g>
<g id="Layer_3">
</g>
</svg>
