<svg width="100.00000000000001" height="100.00000000000001" xmlns="http://www.w3.org/2000/svg">

 <g>
  <title>background</title>
  <rect fill="none" id="canvas_background" height="402" width="582" y="-1" x="-1"/>
 </g>
 <g>
  <title>Layer 1</title>
  <path fill="#ffffff" id="svg_1" d="m83.333,10l-66.666,0c-3.665999,0 -6.667,3.001 -6.667,6.667l0,66.667c0,3.664001 3.001,6.666 6.667,6.666l66.666,0c3.666,0 6.667,-3.001999 6.667,-6.666l0,-66.667c0,-3.665999 -3.000999,-6.667 -6.667,-6.667zm0,73.334l-66.666,0l0,-66.667l66.666,0l0,66.667z"/>
  <rect fill="#ffffff" id="svg_2" y="43.333" x="30" width="6.667" height="26.667"/>
  <circle fill="#ffffff" id="svg_3" r="5" cy="35" cx="33.333"/>
  <path fill="#ffffff" id="svg_4" d="m56.667,43.333c-2.440998,0 -4.701,0.704998 -6.667,1.848999l0,-1.571999l-6.667,0l0,26.389999l6.667,0l0,-13.334c0,-3.681999 2.985001,-6.666 6.667,-6.666s6.666,2.984001 6.666,6.666l0,13.334l6.667,0l0,-13.334c0,-7.362999 -5.970001,-13.333 -13.333,-13.333z"/>
 </g>
</svg>