<svg width="128" height="128" xmlns="http://www.w3.org/2000/svg">

 <title/>
 <g>
  <title>background</title>
  <rect fill="none" id="canvas_background" height="402" width="582" y="-1" x="-1"/>
 </g>
 <g>
  <title>Layer 1</title>
  <path fill="#ffffff" id="svg_1" d="m64,20.5a43.5,43.5 0 1 1 -43.5,43.5a43.549999,43.549999 0 0 1 43.5,-43.5m0,-6.5a50,50 0 1 0 50,50a50,50 0 0 0 -50,-50z" class="cls-1"/>
  <path fill="#ffffff" id="svg_2" d="m43,82.059998c-0.290001,0.330002 -11,-6.619995 -11,-19.089996s8.860001,-30.580002 33.599998,-30.580002s30.400002,20.549999 30.400002,29.900002s-5.360001,30 -24.839996,30c-9.640003,0 -12.370003,-5.450005 -12.370003,-5.450005s-3.860001,18.68 -9.330002,24.490005c0,0 -6.639999,2.879997 -3.719997,-15.720001c0.209999,-1.340004 6.329998,-24.550003 6.329998,-24.550003a23.440001,23.440001 0 0 1 -1.560001,-8.469997c0,-4.869999 4.380001,-11.099998 9.16,-11.099998s6.230003,4.509998 6.230003,7.189999s-4.380001,15.489998 -4.380001,18.409996s2.34,7 7.789997,7s15.490005,-5.539993 15.490005,-21.089996s-11.400002,-21.75 -19.800003,-21.75s-23.77,5 -23.77,20.939999c0,8.180004 3.900002,12.000004 3.900002,12.000004s0.610001,4.75 -2.130001,7.869995z" class="cls-1"/>
 </g>
</svg>