<svg width="128" height="128" xmlns="http://www.w3.org/2000/svg">

 <title/>
 <g>
  <title>background</title>
  <rect fill="none" id="canvas_background" height="402" width="582" y="-1" x="-1"/>
 </g>
 <g>
  <title>Layer 1</title>
  <path fill="#ffffff" id="svg_1" d="m41.75,22.5a19.190001,19.190001 0 0 1 10.080002,2.85l2.169998,1.359999l2.540001,-0.539999a39,39 0 0 1 46.139999,46.719999l-0.519997,2.330002l1.109993,2.110001a19,19 0 0 1 2.190002,8.919998a19.25,19.25 0 0 1 -28.459999,16.900002l-2.059998,-1.150002l-2.340004,0.480003a39,39 0 0 1 -46.159998,-45.640003l0.49,-2.549999l-1.4,-2.190002a19.24,19.24 0 0 1 16.219999,-29.599998m0,-6.5a25.74,25.74 0 0 0 -21.690001,39.610001a45.509998,45.509998 0 0 0 53.859999,53.25a25.75,25.75 0 0 0 35.139999,-34.540001a45.490002,45.490002 0 0 0 -53.829998,-54.5a25.620001,25.620001 0 0 0 -13.48,-3.82z" class="cls-1"/>
  <path fill="#ffffff" id="svg_2" d="m41.400002,51.580002c0,-11.52 11.519997,-15.700001 22.269997,-15.700001c16.660004,0 20.440002,9.84 21.32,12.66c0.529999,1.68 -1,6.509998 -5.599998,6s-5.229996,-7 -14.190002,-9.52c-2.749996,-0.760002 -11.609997,0.349998 -11.609997,5.52c0,4.599998 14.999996,6.860001 22.369999,9.709999c7.720001,3 11.230003,7.139999 11.230003,14.18c0,14.279999 -15.420006,17.699997 -21.800003,17.699997c-20.18,0 -24.559998,-14 -24.559998,-16.369995a5.1,5.1 0 0 1 5.23,-5.43c6.949997,0 4.279999,12.279999 17.609997,12.279999c10.470009,0 11.520012,-4.849998 11.520012,-7.230003c0,-6.849998 -18.270012,-9.229996 -18.270012,-9.229996s-15.519997,-2.440002 -15.519997,-14.57z" class="cls-1"/>
 </g>
</svg>