<svg width="128" height="128" xmlns="http://www.w3.org/2000/svg">

 <title/>
 <g>
  <title>background</title>
  <rect fill="none" id="canvas_background" height="402" width="582" y="-1" x="-1"/>
 </g>
 <g>
  <title>Layer 1</title>
  <path fill="#ffffff" id="svg_1" d="m86.940002,30.66a19.58,19.58 0 0 1 14,6.170002s7.639999,-1.5 11.860001,-4.470001c0,0 -1.060005,5.880001 -8.090004,10.380001l0.059998,0c0.540001,0 4.480003,-0.100002 10.68,-3c0,0 -1.189995,3.389999 -9.299995,9.84l0,0c0.489998,15.259995 -7.060005,43.470001 -35,53.509995a56.360001,56.360001 0 0 1 -19.150002,3.43a53.689999,53.689999 0 0 1 -29.5,-8.669998c1.5,0.150002 2.85,0.150002 4.200001,0.150002c16.52,0 24.52,-8.480003 24.079998,-8.480003l-0.610001,0c-14,0 -17.41,-13.399994 -17.41,-13.399994a6.46,6.46 0 0 0 3.730003,0.919998a20.4,20.4 0 0 0 5,-0.730003c-15.800001,-3.739998 -15.210001,-18.899998 -15.210001,-18.899998a13.45,13.45 0 0 0 7.199999,2.259998a7,7 0 0 0 1.260002,-0.099998c-14.430002,-11.419998 -5.740002,-25.049999 -5.740002,-25.049999c16.259998,18.869999 36.25,19.540001 39,19.540001l0.330002,0c-1.480003,-8.860001 2.169998,-17.370003 12,-22a15.35,15.35 0 0 1 6.540001,-1.400002m19.329994,18.939999l0,0m15.800003,-31.599998l-12.93,9.08a23.93,23.93 0 0 1 -6.339996,2.65a26.16,26.16 0 0 0 -15.830002,-5.539999l0,0a21.690001,21.690001 0 0 0 -9.300003,2c-9.18,4.309999 -14.759998,11.749998 -15.869999,20.679998a49.25,49.25 0 0 1 -27.790001,-16.589998l-5.699999,-6.610001l-4.699999,7.33a25.190001,25.190001 0 0 0 -3.400002,16.66l-0.369999,9.529999a26.24,26.24 0 0 0 5.689999,16.680004l1,3.899994a26.17,26.17 0 0 0 8.360001,12.890007a37.240002,37.240002 0 0 1 -8.129999,0.859993c-1.190001,0 -2.42,-0.049995 -3.66,-0.149994l-22.930001,-1.910004l18.55,13.629997a60.209999,60.209999 0 0 0 33.35,9.910004a63,63 0 0 0 21.379997,-3.800003a57.060001,57.060001 0 0 0 31.700005,-27.909996a68.919998,68.919998 0 0 0 7.57,-28.650002c6.629997,-5.709999 8.449997,-9.349998 8.939995,-10.739998l5.120003,-14.570002l-7,3.26l2.290001,-12.59z" class="cls-1"/>
 </g>
</svg>