<?xml version="1.0" encoding="iso-8859-1"?>
<!-- Generator: Adobe Illustrator 19.0.0, SVG Export Plug-In . SVG Version: 6.00 Build 0)  -->
<svg xmlns="http://www.w3.org/2000/svg" xmlns:xlink="http://www.w3.org/1999/xlink" version="1.1" id="Capa_1" x="0px" y="0px" viewBox="0 0 512 512" style="enable-background:new 0 0 512 512;" xml:space="preserve" width="512px" height="512px">
<g>
	<g>
		<g>
			<path d="M416,160c-0.053-44.161-35.839-79.947-80-80c0-44.183-35.817-80-80-80s-80,35.817-80,80     c-44.183,0.032-79.974,35.875-79.942,80.058c0.019,26.522,13.182,51.31,35.142,66.182l17.872-26.56     c-21.915-14.917-27.588-44.774-12.671-66.689C145.323,119.883,160.143,112.027,176,112h32V80c0-26.51,21.49-48,48-48     c26.51,0,48,21.49,48,48v32h32c26.51,0.054,47.956,21.587,47.903,48.097c-0.032,15.851-7.887,30.664-20.991,39.583l17.888,26.56     C402.832,211.399,416.029,186.564,416,160z" fill="#FFFFFF"/>
			<path d="M266.32,177.6l-3.312-1.6h-14.016l-3.312,1.6c-53.444,26.764-86.769,81.839-85.68,141.6     c-1.459,57.588,29.427,111.151,80,138.736V512h32v-54.064c50.573-27.585,81.459-81.148,80-138.736     C353.089,259.439,319.764,204.364,266.32,177.6z M240,419.808c-29.059-22.173-46.575-56.264-47.68-92.8L240,374.624V419.808z      M240,329.376l-43.904-43.904c6.684-26.55,22.158-50.055,43.904-66.688V329.376z M272,218.784     c11.777,9.108,21.824,20.256,29.664,32.912L272,281.376V218.784z M272,419.824v-93.2l43.376-43.424     c3.136,11.741,4.691,23.848,4.624,36C321.141,358.515,303.273,395.972,272,419.824z" fill="#FFFFFF"/>
			<rect y="320" width="32" height="32" fill="#FFFFFF"/>
			<rect x="64" y="320" width="64" height="32" fill="#FFFFFF"/>
			<rect y="384" width="96" height="32" fill="#FFFFFF"/>
			<rect x="384" y="320" width="32" height="32" fill="#FFFFFF"/>
			<rect x="448" y="320" width="64" height="32" fill="#FFFFFF"/>
			<rect x="416" y="256" width="96" height="32" fill="#FFFFFF"/>
		</g>
	</g>
</g>
<g>
</g>
<g>
</g>
<g>
</g>
<g>
</g>
<g>
</g>
<g>
</g>
<g>
</g>
<g>
</g>
<g>
</g>
<g>
</g>
<g>
</g>
<g>
</g>
<g>
</g>
<g>
</g>
<g>
</g>
</svg>
