<svg id="Layer_1" data-name="Layer 1" xmlns="http://www.w3.org/2000/svg" viewBox="0 0 310.52 299.37"><defs><style>.cls-1{fill:#fff;}</style></defs><title>Hollbium_logo</title><path class="cls-1" d="M117.19,256.37h-8.77v7.94a.6.6,0,1,1-1.19,0V247.16a.6.6,0,1,1,1.19,0v7.94h8.77v-7.94a.6.6,0,1,1,1.19,0v17.15a.6.6,0,1,1-1.19,0Z"/><path class="cls-1" d="M129.32,252.06c3.14,0,5.65,2.95,5.65,6.44s-2.51,6.44-5.65,6.44-5.65-2.95-5.65-6.44S126.2,252.06,129.32,252.06Zm0,11.63c2.43,0,4.48-2.31,4.48-5.18s-2-5.21-4.48-5.21-4.48,2.34-4.48,5.21S126.88,263.68,129.32,263.68Z"/><path class="cls-1" d="M139.62,247.16a.6.6,0,1,1,1.19,0v17.15a.6.6,0,1,1-1.19,0Z"/><path class="cls-1" d="M145.68,247.16a.6.6,0,1,1,1.19,0v17.15a.6.6,0,1,1-1.19,0Z"/><path class="cls-1" d="M151.58,258.79V247.16a.6.6,0,1,1,1.19,0v7.42a5.57,5.57,0,0,1,4.58-2.52c3.21,0,5.77,2.89,5.77,6.47s-2.56,6.42-5.77,6.42a5.55,5.55,0,0,1-4.58-2.5v1.87a.6.6,0,1,1-1.19,0Zm1.19-.26a4.61,4.61,0,1,0,9.16,0c0-2.87-2-5.18-4.58-5.18a4.89,4.89,0,0,0-4.58,5Z"/><path class="cls-1" d="M167.68,248.48a.6.6,0,1,1,1.19,0v.61a.6.6,0,1,1-1.19,0Zm0,4.21a.6.6,0,1,1,1.19,0v11.63a.6.6,0,1,1-1.19,0Z"/><path class="cls-1" d="M174.25,252.66a.59.59,0,1,1,1.17,0v7a3.69,3.69,0,1,0,7.35,0v-7a.62.62,0,0,1,.58-.63.61.61,0,0,1,.61.63v7a4.87,4.87,0,1,1-9.72,0Z"/><path class="cls-1" d="M206.49,257.32a3.7,3.7,0,1,0-7.38,0v7.1a.09.09,0,0,1,0,.05v.05a.65.65,0,0,1-.29.34.62.62,0,0,1-.29.08h-.12a.08.08,0,0,1,0,0s-.1-.05-.15-.08,0,0-.07-.05l-.07-.08s0-.05,0-.05,0,0,0-.05a.08.08,0,0,0,0-.05.1.1,0,0,0,0-.08v-7.15a3.69,3.69,0,1,0-7.35,0v7a.57.57,0,0,1-.27.5.27.27,0,0,1-.15.08s0,0-.1,0h-.15a.65.65,0,0,1-.49-.47V252.69a.59.59,0,0,1,.56-.6.58.58,0,0,1,.58.6v1.24a4.63,4.63,0,0,1,3.68-1.84,4.8,4.8,0,0,1,4.26,2.74,4.9,4.9,0,0,1,4.29-2.74,5,5,0,0,1,4.85,5.23v7a.57.57,0,1,1-1.14,0Z"/><path class="cls-1" d="M155,34.42h0a52.12,52.12,0,0,0-52.12,52.12v91.38A52.12,52.12,0,0,0,155,230h0a52.12,52.12,0,0,0,52.12-52.12V86.54A52.12,52.12,0,0,0,155,34.42Zm46.61,142.67c0,26.2-20.87,47.44-46.61,47.44h0c-25.74,0-46.61-21.24-46.61-47.44V87.37c0-26.2,20.87-47.44,46.61-47.44h0c25.74,0,46.61,21.24,46.61,47.44Z"/><path class="cls-1" d="M179,109.57h-6.42a18.68,18.68,0,0,0-17.36,11.83,18.68,18.68,0,0,0-17.36-11.83h-6.42a1.29,1.29,0,0,0-1.29,1.29v6.42a18.65,18.65,0,0,0,18.65,18.65H153V157.8h0a2.28,2.28,0,0,0,4.55,0h0V135.93h4.13a18.65,18.65,0,0,0,18.65-18.65v-6.42A1.29,1.29,0,0,0,179,109.57Zm-32.18,22.1a12.4,12.4,0,0,1-12.4-12.4v-3.7a1.75,1.75,0,0,1,1.75-1.75h3.7a12.4,12.4,0,0,1,12.4,12.4v3.91l0,1.53ZM176,118.17a13.45,13.45,0,0,1-13.45,13.45l-4.25-.06,0-1.47v-2.76a13.45,13.45,0,0,1,13.45-13.45h2.54a1.75,1.75,0,0,1,1.75,1.75Z"/></svg>